<?xml version="1.0" encoding="UTF-8" standalone="no"?>
<!-- Created with Inkscape (http://www.inkscape.org/) -->

<svg
   xmlns:dc="http://purl.org/dc/elements/1.1/"
   xmlns:cc="http://creativecommons.org/ns#"
   xmlns:rdf="http://www.w3.org/1999/02/22-rdf-syntax-ns#"
   xmlns:svg="http://www.w3.org/2000/svg"
   xmlns="http://www.w3.org/2000/svg"
   xmlns:sodipodi="http://sodipodi.sourceforge.net/DTD/sodipodi-0.dtd"
   xmlns:inkscape="http://www.inkscape.org/namespaces/inkscape"
   width="56.444454mm"
   height="76.247864mm"
   viewBox="0 0 200.00003 270.16959"
   id="svg4186"
   version="1.1"
   inkscape:version="0.91 r13725"
   sodipodi:docname="hyuchia.svg">
  <defs
     id="defs4188" />
  <sodipodi:namedview
     id="base"
     pagecolor="#ffffff"
     bordercolor="#666666"
     borderopacity="1.0"
     inkscape:pageopacity="0.0"
     inkscape:pageshadow="2"
     inkscape:zoom="0.5"
     inkscape:cx="-18.886118"
     inkscape:cy="168.65622"
     inkscape:document-units="px"
     inkscape:current-layer="layer1"
     showgrid="false"
     inkscape:window-width="1280"
     inkscape:window-height="744"
     inkscape:window-x="0"
     inkscape:window-y="30"
     inkscape:window-maximized="1"
     units="px"
     fit-margin-top="0"
     fit-margin-left="0"
     fit-margin-right="0"
     fit-margin-bottom="0" />
  <metadata
     id="metadata4191">
    <rdf:RDF>
      <cc:Work
         rdf:about="">
        <dc:format>image/svg+xml</dc:format>
        <dc:type
           rdf:resource="http://purl.org/dc/dcmitype/StillImage" />
        <dc:title></dc:title>
      </cc:Work>
    </rdf:RDF>
  </metadata>
  <g
     inkscape:label="Layer 1"
     inkscape:groupmode="layer"
     id="layer1"
     transform="translate(-251.42855,-265.84884)">
    <path
       style="fill:#424242;fill-opacity:0.47843137"
       d="m 258.41426,534.58481 c -7.33006,-2.93081 -9.01741,-10.14785 -4.4647,-19.09603 1.44718,-2.84437 8.08228,-21.79377 14.74468,-42.10979 17.4093,-53.08726 18.86536,-57.6771 18.86536,-59.46803 0,-1.18472 -2.12402,-1.10427 -8.01489,0.30358 -12.31621,2.94342 -16.41274,2.59974 -19.76184,-1.65796 -3.29772,-4.19236 -3.59534,-7.19081 -1.22923,-12.38385 2.22372,-4.88054 8.70448,-7.35162 24.31061,-9.26949 11.28408,-1.38673 13.12135,-1.98591 13.84361,-4.5147 0.45803,-1.60368 7.4136,-23.22511 15.45683,-48.04762 9.22282,-28.46294 14.1356,-45.6203 13.30156,-46.45433 -4.19315,-4.19316 -23.39553,8.22349 -34.41176,22.25133 -10.53601,13.41635 -12.57947,24.0112 -6.19627,32.12614 3.52364,4.47957 3.49897,12.01797 -0.051,15.56788 -6.98744,6.98744 -15.40488,4.20612 -21.70811,-7.17287 -3.60098,-6.50069 -4.1144,-8.82812 -4.1144,-18.65101 0,-10.24222 0.47667,-12.18795 5.45223,-22.2553 7.2786,-14.72726 25.14602,-33.0364 38.65659,-39.61231 12.65159,-6.1578 23.70649,-7.1599 32.42518,-2.93925 12.5315,6.0664 15.96391,16.97043 10.79934,34.30736 -1.58327,5.31486 -7.96737,25.56326 -14.1869,44.99647 -6.21953,19.4332 -11.04029,35.60106 -10.71278,35.92856 0.64651,0.6465 66.22172,-2.14674 68.7231,-2.92734 0.83849,-0.26166 3.59706,-7.58964 6.13017,-16.2844 13.24809,-45.47339 31.26497,-93.38721 36.99988,-98.39693 6.54884,-5.72074 16.00267,-2.82653 18.09663,5.54012 0.52058,2.08004 -2.32918,10.95935 -8.27959,25.79755 -9.04966,22.56664 -25.51708,71.82156 -26.22205,78.43155 -0.20442,1.91661 0.25558,3.39912 1.02222,3.29448 0.76665,-0.10468 6.11873,-0.6158 11.89352,-1.13594 9.43211,-0.84955 10.88473,-0.64278 14.28743,2.03378 4.97524,3.91354 5.29859,12.03499 0.65153,16.36392 -3.17269,2.95548 -18.37775,5.92776 -30.32414,5.92776 -3.9211,0 -5.57604,0.66174 -6.10056,2.43932 -0.39587,1.34162 -3.2565,13.41624 -6.35697,26.83248 -10.33672,44.72874 -13.65033,74.65646 -9.52819,86.05606 1.41062,3.90096 1.34198,5.35622 -0.3991,8.46233 -4.78752,8.54095 -15.77856,8.41603 -20.51287,-0.23314 -2.00691,-3.66645 -2.37057,-8.00821 -2.23475,-26.68135 0.17225,-23.68055 2.52171,-39.45176 11.53415,-77.42506 2.26405,-9.53944 3.93077,-17.53013 3.70382,-17.75708 -0.52294,-0.52294 -53.1389,2.21579 -63.80677,3.32122 l -7.98363,0.82727 -6.36233,20.42671 c -10.72839,34.44418 -29.81849,90.68841 -32.69418,96.32522 -1.80577,3.53959 -4.21765,5.85786 -7.16241,6.8844 -2.44191,0.85126 -4.50306,1.50799 -4.58031,1.45938 -0.0772,-0.0486 -1.65171,-0.69258 -3.49876,-1.43109 z"
       id="path4138"
       inkscape:connector-curvature="0" />
  </g>
</svg>
