<?xml version="1.0" encoding="UTF-8" standalone="no"?>
<svg
   xmlns:dc="http://purl.org/dc/elements/1.1/"
   xmlns:cc="http://creativecommons.org/ns#"
   xmlns:rdf="http://www.w3.org/1999/02/22-rdf-syntax-ns#"
   xmlns:svg="http://www.w3.org/2000/svg"
   xmlns="http://www.w3.org/2000/svg"
   xmlns:sodipodi="http://sodipodi.sourceforge.net/DTD/sodipodi-0.dtd"
   xmlns:inkscape="http://www.inkscape.org/namespaces/inkscape"
   width="500"
   height="500"
   viewBox="0 0 500 499.99999"
   version="1.1"
   id="svg2"
   inkscape:version="0.91 r13725"
   sodipodi:docname="Artboard 11 Copy 3.svg">
  <metadata
     id="metadata24">
    <rdf:RDF>
      <cc:Work
         rdf:about="">
        <dc:format>image/svg+xml</dc:format>
        <dc:type
           rdf:resource="http://purl.org/dc/dcmitype/StillImage" />
        <dc:title>Artboard 11 Copy 3</dc:title>
      </cc:Work>
    </rdf:RDF>
  </metadata>
  <sodipodi:namedview
     pagecolor="#ffffff"
     bordercolor="#666666"
     borderopacity="1"
     objecttolerance="10"
     gridtolerance="10"
     guidetolerance="10"
     inkscape:pageopacity="0"
     inkscape:pageshadow="2"
     inkscape:window-width="1280"
     inkscape:window-height="744"
     id="namedview22"
     showgrid="false"
     showguides="false"
     inkscape:zoom="0.472"
     inkscape:cx="242.63477"
     inkscape:cy="145.51547"
     inkscape:window-x="0"
     inkscape:window-y="30"
     inkscape:window-maximized="1"
     inkscape:current-layer="Artboard-11-Copy-3"
     fit-margin-top="0"
     fit-margin-left="0"
     fit-margin-right="0"
     fit-margin-bottom="0" />
  <!-- Generator: Sketch 3.8.1 (29687) - http://www.bohemiancoding.com/sketch -->
  <title
     id="title4">Artboard 11 Copy 3</title>
  <desc
     id="desc6">Created with Sketch.</desc>
  <defs
     id="defs8" />
  <g
     style="fill:none;fill-rule:evenodd;stroke:none;stroke-width:1"
     id="Artboard-11-Copy-3"
     transform="translate(-7.3652343,10.42969)">
    <g
       id="g3413"
       transform="matrix(1.0303096,0,0,1.043535,-0.22323743,-21.313434)">
      <path
         inkscape:connector-curvature="0"
         id="Oval-48"
         d="m 321,10.429688 0,98.437502 82.13281,82.13281 89.52344,0 A 250,250 0 0 0 321,10.429688 Z m -142,0.05273 A 250,250 0 0 0 7.3652344,191 L 96.867188,191 179,108.86719 179,10.482422 Z M 14.46875,333 A 250,250 0 0 0 179,489.57031 l 0,-98.4375 L 120.86719,333 14.46875,333 Z M 379.13281,333 321,391.13281 l 0,98.38477 A 250,250 0 0 0 485.50586,333 l -106.37305,0 z"
         style="fill:#424242" />
      <path
         inkscape:connector-curvature="0"
         id="Oval-48-Copy"
         d="m 250,100 a 150,150 0 0 0 -40.38086,5.55273 L 249,144.93359 288.67773,105.25586 A 150,150 0 0 0 250,100 Z M 394.83789,211.22852 355.06641,251 394.33594,290.26953 A 150,150 0 0 0 400,250 150,150 0 0 0 394.83789,211.22852 Z m -289.98828,1.6875 A 150,150 0 0 0 100,250 a 150,150 0 0 0 5.16211,38.77148 L 142.93359,251 104.84961,212.91602 Z M 249,357.06641 211.32227,394.74414 A 150,150 0 0 0 250,400 150,150 0 0 0 287.13672,395.20312 L 249,357.06641 Z"
         style="fill:#3cb3cc" />
      <path
         inkscape:connector-curvature="0"
         id="Oval-48-Copy-2"
         d="m 200.25391,163.39648 a 100,100 0 0 0 -36.90625,36.85743 l 36.27343,-0.63282 0.63282,-36.22461 z m 102.48437,1.78516 -0.57031,32.65039 32.71875,-0.57226 a 100,100 0 0 0 -32.14844,-32.07813 z m 33.91406,134.56445 -36.27343,0.63282 -0.63282,36.22461 a 100,100 0 0 0 36.90625,-36.85743 z m -138.82031,2.42188 -32.71875,0.57226 a 100,100 0 0 0 32.14844,32.07813 l 0.57031,-32.65039 z"
         style="fill:#f16272" />
      <circle
         id="Oval-48-Copy-3"
         cx="250"
         cy="250"
         r="25"
         style="fill:#ffc153" />
    </g>
  </g>
</svg>
